<?xml version="1.0" standalone="no"?>
<!DOCTYPE svg PUBLIC "-//W3C//DTD SVG 20010904//EN"
 "http://www.w3.org/TR/2001/REC-SVG-20010904/DTD/svg10.dtd">
<svg version="1.0" xmlns="http://www.w3.org/2000/svg"
 width="1000.000000pt" height="1000.000000pt" viewBox="0 0 1000.000000 1000.000000"
 preserveAspectRatio="xMidYMid meet">
<metadata>
Created by potrace 1.14, written by Peter Selinger 2001-2017
</metadata>
<g transform="translate(0.000000,1000.000000) scale(0.100000,-0.100000)"
fill="#000000" stroke="none">
<path d="M2590 9866 c-53 -34 -72 -54 -97 -103 -47 -87 -80 -217 -102 -398
-35 -285 -72 -558 -76 -565 -2 -4 -15 -94 -29 -201 -38 -287 -74 -543 -91
-639 -8 -47 -33 -233 -55 -415 -23 -181 -50 -370 -60 -420 -10 -49 -35 -220
-55 -380 -19 -159 -44 -344 -55 -410 -10 -66 -24 -154 -29 -195 -56 -409 -74
-541 -91 -640 -11 -63 -31 -203 -45 -310 -47 -380 -55 -436 -75 -530 -11 -52
-31 -185 -45 -295 -33 -254 -66 -488 -70 -495 -2 -3 -10 -59 -20 -125 -47
-346 -94 -657 -100 -674 -14 -35 -95 -681 -95 -751 0 -151 35 -268 109 -359
55 -69 160 -158 240 -203 31 -17 70 -42 86 -54 17 -12 66 -42 110 -67 79 -43
192 -110 290 -170 28 -17 90 -52 138 -78 48 -26 93 -52 100 -57 7 -5 50 -30
97 -55 47 -24 137 -73 200 -107 513 -279 713 -386 1255 -665 127 -65 286 -147
355 -183 327 -169 373 -187 451 -180 61 6 104 28 684 342 99 54 236 128 305
164 69 36 136 73 150 83 14 9 63 36 110 59 47 24 103 55 125 70 22 15 76 45
120 67 72 36 148 78 370 206 39 22 88 50 110 62 133 75 197 111 250 145 33 20
89 54 125 74 146 84 319 191 631 391 34 22 90 58 125 80 286 183 342 246 366
414 11 71 9 93 -26 306 -21 127 -49 293 -63 370 -24 135 -54 322 -88 545 -9
58 -23 134 -31 170 -20 85 -37 186 -69 405 -14 99 -33 214 -41 255 -21 105
-68 384 -99 584 -14 94 -28 173 -30 176 -4 6 -28 149 -45 268 -30 210 -53 348
-71 432 -11 52 -38 212 -59 355 -22 143 -48 307 -59 365 -11 58 -38 222 -61
365 -22 143 -47 292 -55 330 -8 39 -26 142 -39 230 -33 210 -54 269 -123 346
-20 23 -69 57 -107 76 -66 34 -77 36 -163 36 -84 1 -97 -2 -152 -31 -34 -18
-78 -44 -98 -59 -21 -16 -228 -216 -459 -446 -232 -230 -436 -427 -453 -438
-43 -26 -74 -24 -110 6 -40 35 -64 75 -115 197 -48 112 -189 429 -268 602 -27
59 -65 144 -84 188 -19 44 -41 92 -49 107 -8 14 -33 73 -56 131 -23 58 -48
112 -55 120 -6 8 -24 39 -38 68 -57 114 -150 182 -273 201 -72 11 -113 7 -200
-20 -53 -17 -71 -30 -125 -88 -55 -60 -80 -102 -198 -337 -157 -313 -194 -376
-218 -372 -18 3 -273 509 -816 1623 -178 363 -191 387 -239 441 -26 29 -69 64
-94 78 -43 24 -54 26 -182 26 l-136 -1 -65 -43z m269 -253 c11 -10 91 -157
177 -328 141 -279 437 -866 767 -1519 109 -214 122 -245 125 -300 4 -69 6 -66
-149 -346 -202 -366 -542 -1034 -827 -1625 -71 -148 -173 -360 -227 -470 -134
-278 -540 -1086 -614 -1225 -34 -63 -65 -128 -68 -145 -3 -16 -14 -46 -24 -66
-19 -38 -118 -153 -126 -145 -4 3 39 210 82 400 7 34 23 140 35 236 11 96 41
333 66 525 25 193 60 476 79 630 18 154 66 530 104 835 39 305 83 647 97 760
14 113 49 390 79 615 30 226 64 484 75 575 12 91 37 275 56 410 19 135 52 380
74 545 22 165 44 323 49 350 5 28 13 95 17 150 6 91 10 102 35 127 32 33 85
38 118 11z m2018 -1300 c19 -9 45 -32 59 -52 20 -32 121 -253 289 -636 69
-158 152 -344 262 -590 50 -110 95 -215 101 -234 29 -84 3 -149 -94 -240 -508
-476 -860 -839 -1964 -2026 -344 -370 -768 -823 -855 -915 -45 -47 -110 -115
-145 -152 l-63 -68 -31 20 c-17 10 -32 25 -34 32 -1 7 93 211 209 453 116 242
237 494 269 560 31 66 123 255 202 420 161 333 545 1132 803 1670 92 193 206
429 252 525 47 96 148 321 224 500 296 689 300 698 374 735 39 20 98 19 142
-2z m2268 -642 c16 -9 42 -35 57 -56 32 -46 48 -116 102 -470 20 -126 54 -342
76 -480 37 -228 69 -426 135 -840 13 -82 42 -265 65 -405 22 -140 52 -327 66
-415 13 -88 51 -326 84 -530 33 -203 78 -482 100 -620 21 -137 71 -446 109
-685 39 -239 80 -496 92 -570 34 -215 18 -303 -69 -382 -38 -35 -329 -219
-597 -378 -557 -331 -961 -554 -1910 -1053 -533 -280 -610 -317 -658 -317 -32
0 -91 27 -306 142 -146 77 -365 194 -486 258 -842 447 -1348 734 -1850 1046
-345 215 -347 216 -405 309 l-50 80 248 244 c398 394 780 770 1367 1346 1460
1433 2585 2557 2796 2795 85 96 260 297 389 445 443 514 442 512 495 540 55
29 95 28 150 -4z"/>
<path d="M6232 4758 c-9 -9 -12 -100 -12 -350 l0 -338 -183 0 c-129 0 -187 -4
-195 -12 -9 -9 23 -46 146 -163 233 -224 551 -515 562 -515 6 0 57 44 115 98
57 53 188 176 292 272 286 266 306 287 300 304 -5 13 -36 16 -189 18 l-183 3
-3 334 c-1 226 -6 339 -13 348 -16 18 -619 19 -637 1z"/>
<path d="M4953 4715 c-15 -19 -98 -98 -183 -176 -85 -78 -233 -216 -327 -307
-135 -129 -170 -168 -162 -179 9 -10 55 -13 195 -13 l184 0 0 -333 c0 -311 1
-335 18 -350 16 -15 53 -17 319 -17 278 0 301 1 316 18 15 17 17 56 17 350 l0
332 184 0 c217 0 232 6 164 62 -24 20 -86 78 -138 129 -52 52 -183 174 -290
272 -107 99 -210 194 -228 213 -18 19 -35 34 -37 34 -2 0 -16 -16 -32 -35z"/>
<path d="M3999 3812 c-49 -18 -120 -88 -139 -136 -15 -39 -14 -1652 1 -1662
18 -11 33 12 127 196 49 96 106 204 127 240 20 36 43 80 51 99 8 19 44 88 80
154 37 66 90 168 120 226 29 58 73 131 98 161 l46 55 0 330 c0 244 -3 334 -12
343 -9 9 -73 12 -232 11 -180 0 -229 -4 -267 -17z"/>
<path d="M5486 3524 c-13 -12 -16 -39 -16 -133 0 -78 4 -121 12 -129 16 -16
923 -17 933 -2 8 13 -51 79 -174 193 l-95 87 -322 0 c-280 0 -325 -2 -338 -16z"/>
<path d="M4694 3112 c-53 -19 -134 -76 -134 -94 0 -6 -11 -25 -24 -43 -14 -17
-66 -112 -116 -211 -51 -98 -96 -183 -100 -189 -4 -5 -39 -71 -77 -145 -189
-367 -247 -476 -258 -490 -27 -33 -96 -191 -90 -208 3 -9 19 -33 36 -52 l30
-35 1222 0 1222 0 47 28 c66 40 115 99 168 203 25 49 60 116 79 149 18 33 69
130 113 215 44 85 84 160 88 165 4 6 46 84 93 175 47 91 114 221 151 290 77
147 82 181 35 226 l-30 29 -1202 2 c-1127 2 -1205 1 -1253 -15z"/>
</g>
</svg>
